<mxfile host="65bd71144e">
    <diagram id="4TOdRqiMBNw8jJSoQFOh" name="Страница 1">
        <mxGraphModel dx="1566" dy="339" grid="1" gridSize="10" guides="1" tooltips="1" connect="1" arrows="1" fold="1" page="1" pageScale="1" pageWidth="827" pageHeight="1169" math="0" shadow="0">
            <root>
                <mxCell id="0"/>
                <mxCell id="1" parent="0"/>
                <mxCell id="hsBlT8sPt4qA28vCXqKn-1" value="Start" style="rounded=1;whiteSpace=wrap;html=1;" parent="1" vertex="1">
                    <mxGeometry x="240" y="10" width="90" height="40" as="geometry"/>
                </mxCell>
                <mxCell id="hsBlT8sPt4qA28vCXqKn-4" value="distanse &amp;gt; 10" style="rhombus;whiteSpace=wrap;html=1;" parent="1" vertex="1">
                    <mxGeometry x="210" y="200" width="150" height="70" as="geometry"/>
                </mxCell>
                <mxCell id="hsBlT8sPt4qA28vCXqKn-5" value="friend = 1&amp;nbsp;" style="rhombus;whiteSpace=wrap;html=1;" parent="1" vertex="1">
                    <mxGeometry x="235" y="300" width="100" height="80" as="geometry"/>
                </mxCell>
                <mxCell id="hsBlT8sPt4qA28vCXqKn-6" value="&lt;div style=&quot;color: rgb(212 , 212 , 212) ; background-color: rgb(30 , 30 , 30) ; font-family: &amp;#34;consolas&amp;#34; , &amp;#34;courier new&amp;#34; , monospace ; font-size: 14px ; line-height: 19px&quot;&gt;&lt;span style=&quot;color: #dcdcaa&quot;&gt;print&lt;/span&gt;(&lt;span style=&quot;color: #ce9178&quot;&gt;'собака пробежит: '&lt;/span&gt; + &lt;span style=&quot;color: #4ec9b0&quot;&gt;str&lt;/span&gt;(&lt;span style=&quot;color: #9cdcfe&quot;&gt;count&lt;/span&gt;) + &lt;span style=&quot;color: #ce9178&quot;&gt;' раз'&lt;/span&gt;)&amp;nbsp;&lt;/div&gt;" style="rounded=0;whiteSpace=wrap;html=1;" parent="1" vertex="1">
                    <mxGeometry x="400" y="215" width="390" height="40" as="geometry"/>
                </mxCell>
                <mxCell id="hsBlT8sPt4qA28vCXqKn-7" value="time = distanse / (firstFriendSpeed + dogSpeed)&lt;br&gt;&amp;nbsp;" style="rounded=0;whiteSpace=wrap;html=1;" parent="1" vertex="1">
                    <mxGeometry x="380" y="315" width="280" height="50" as="geometry"/>
                </mxCell>
                <mxCell id="hsBlT8sPt4qA28vCXqKn-8" value="time = distanse / (secondFriendSpeed&amp;nbsp;+ dogSpeed)&lt;br&gt;&amp;nbsp;" style="rounded=0;whiteSpace=wrap;html=1;" parent="1" vertex="1">
                    <mxGeometry x="-92.5" y="315" width="285" height="50" as="geometry"/>
                </mxCell>
                <mxCell id="hsBlT8sPt4qA28vCXqKn-9" value="friend = 1" style="rounded=0;whiteSpace=wrap;html=1;" parent="1" vertex="1">
                    <mxGeometry x="-20" y="400" width="140" height="40" as="geometry"/>
                </mxCell>
                <mxCell id="hsBlT8sPt4qA28vCXqKn-10" value="friend = 2" style="rounded=0;whiteSpace=wrap;html=1;" parent="1" vertex="1">
                    <mxGeometry x="470" y="400" width="100" height="40" as="geometry"/>
                </mxCell>
                <mxCell id="hsBlT8sPt4qA28vCXqKn-11" value="distanse = distanse - ( (firstFriendSpeed&amp;nbsp;+ secondFriendSpeed) * time )" style="rounded=0;whiteSpace=wrap;html=1;" parent="1" vertex="1">
                    <mxGeometry x="40" y="480" width="490" height="40" as="geometry"/>
                </mxCell>
                <mxCell id="hsBlT8sPt4qA28vCXqKn-13" value="count = count + 1" style="rounded=0;whiteSpace=wrap;html=1;" parent="1" vertex="1">
                    <mxGeometry x="225" y="550" width="120" height="40" as="geometry"/>
                </mxCell>
                <mxCell id="hsBlT8sPt4qA28vCXqKn-21" value="count = 0&lt;br&gt;distanse = 10000&lt;br&gt;firstFriendSpeed = 1&lt;br&gt;secondFriendSpeed = 2&lt;br&gt;dogSpeed = 5&lt;br&gt;friend = 2" style="shape=parallelogram;perimeter=parallelogramPerimeter;whiteSpace=wrap;html=1;fixedSize=1;" parent="1" vertex="1">
                    <mxGeometry x="195" y="80" width="180" height="95" as="geometry"/>
                </mxCell>
                <mxCell id="hsBlT8sPt4qA28vCXqKn-23" value="&lt;div&gt;Вспоминаем формулы из средней школы&lt;/div&gt;&lt;div&gt;S — расстояние&lt;/div&gt;&lt;div&gt;V — скорость&lt;/div&gt;&lt;div&gt;T — время&lt;/div&gt;&lt;div&gt;V = S ÷ T&lt;/div&gt;&lt;div&gt;S = V × T&lt;/div&gt;&lt;div&gt;T = S ÷ V&lt;/div&gt;" style="whiteSpace=wrap;html=1;" parent="1" vertex="1">
                    <mxGeometry x="-75" y="20" width="235" height="120" as="geometry"/>
                </mxCell>
                <mxCell id="hsBlT8sPt4qA28vCXqKn-24" value="задача с друзьями и собакой.&amp;nbsp;&lt;br&gt;Условие. два друга движутся навстречу друг другу с заданной скоростью.&amp;nbsp;&lt;br&gt;Скорость первого - 1м/с, второго - 2 м/с. &lt;br&gt;У них есть собака, которая бегает со скоростью 5 м/с.&lt;br&gt;Когда друзья начинают свой путь, собака бежит от одного друга к другому, добегает и бежит обратно. &lt;br&gt;Сколько раз собака перебежит от одного друга к другому, пока они не встретятся?&amp;nbsp;&amp;nbsp;" style="rounded=0;whiteSpace=wrap;html=1;" parent="1" vertex="1">
                    <mxGeometry x="400" y="20" width="490" height="110" as="geometry"/>
                </mxCell>
                <mxCell id="hsBlT8sPt4qA28vCXqKn-28" value="" style="endArrow=classic;html=1;rounded=0;exitX=1;exitY=0.5;exitDx=0;exitDy=0;" parent="1" source="hsBlT8sPt4qA28vCXqKn-5" edge="1">
                    <mxGeometry width="50" height="50" relative="1" as="geometry">
                        <mxPoint x="260" y="300" as="sourcePoint"/>
                        <mxPoint x="380" y="340" as="targetPoint"/>
                    </mxGeometry>
                </mxCell>
                <mxCell id="hsBlT8sPt4qA28vCXqKn-29" value="" style="endArrow=classic;html=1;rounded=0;exitX=0;exitY=0.5;exitDx=0;exitDy=0;entryX=1;entryY=0.5;entryDx=0;entryDy=0;" parent="1" source="hsBlT8sPt4qA28vCXqKn-5" target="hsBlT8sPt4qA28vCXqKn-8" edge="1">
                    <mxGeometry width="50" height="50" relative="1" as="geometry">
                        <mxPoint x="260" y="300" as="sourcePoint"/>
                        <mxPoint x="310" y="250" as="targetPoint"/>
                    </mxGeometry>
                </mxCell>
                <mxCell id="hsBlT8sPt4qA28vCXqKn-30" value="" style="endArrow=classic;html=1;rounded=0;exitX=0.5;exitY=1;exitDx=0;exitDy=0;entryX=0.5;entryY=0;entryDx=0;entryDy=0;" parent="1" source="hsBlT8sPt4qA28vCXqKn-4" target="hsBlT8sPt4qA28vCXqKn-5" edge="1">
                    <mxGeometry width="50" height="50" relative="1" as="geometry">
                        <mxPoint x="260" y="300" as="sourcePoint"/>
                        <mxPoint x="310" y="250" as="targetPoint"/>
                    </mxGeometry>
                </mxCell>
                <mxCell id="hsBlT8sPt4qA28vCXqKn-31" value="" style="endArrow=classic;html=1;rounded=0;exitX=0.5;exitY=1;exitDx=0;exitDy=0;entryX=0.5;entryY=0;entryDx=0;entryDy=0;" parent="1" source="hsBlT8sPt4qA28vCXqKn-21" target="hsBlT8sPt4qA28vCXqKn-4" edge="1">
                    <mxGeometry width="50" height="50" relative="1" as="geometry">
                        <mxPoint x="260" y="300" as="sourcePoint"/>
                        <mxPoint x="310" y="250" as="targetPoint"/>
                    </mxGeometry>
                </mxCell>
                <mxCell id="hsBlT8sPt4qA28vCXqKn-32" value="" style="endArrow=classic;html=1;rounded=0;exitX=0.5;exitY=1;exitDx=0;exitDy=0;entryX=0.5;entryY=0;entryDx=0;entryDy=0;" parent="1" source="hsBlT8sPt4qA28vCXqKn-1" target="hsBlT8sPt4qA28vCXqKn-21" edge="1">
                    <mxGeometry width="50" height="50" relative="1" as="geometry">
                        <mxPoint x="260" y="300" as="sourcePoint"/>
                        <mxPoint x="310" y="250" as="targetPoint"/>
                    </mxGeometry>
                </mxCell>
                <mxCell id="hsBlT8sPt4qA28vCXqKn-33" value="" style="endArrow=classic;html=1;rounded=0;exitX=1;exitY=0.5;exitDx=0;exitDy=0;entryX=0;entryY=0.5;entryDx=0;entryDy=0;" parent="1" source="hsBlT8sPt4qA28vCXqKn-4" target="hsBlT8sPt4qA28vCXqKn-6" edge="1">
                    <mxGeometry width="50" height="50" relative="1" as="geometry">
                        <mxPoint x="260" y="300" as="sourcePoint"/>
                        <mxPoint x="310" y="250" as="targetPoint"/>
                    </mxGeometry>
                </mxCell>
                <mxCell id="hsBlT8sPt4qA28vCXqKn-34" value="" style="endArrow=classic;html=1;rounded=0;exitX=0.5;exitY=1;exitDx=0;exitDy=0;entryX=0.5;entryY=0;entryDx=0;entryDy=0;" parent="1" source="hsBlT8sPt4qA28vCXqKn-8" target="hsBlT8sPt4qA28vCXqKn-9" edge="1">
                    <mxGeometry width="50" height="50" relative="1" as="geometry">
                        <mxPoint x="260" y="400" as="sourcePoint"/>
                        <mxPoint x="310" y="350" as="targetPoint"/>
                    </mxGeometry>
                </mxCell>
                <mxCell id="hsBlT8sPt4qA28vCXqKn-35" value="" style="endArrow=classic;html=1;rounded=0;exitX=1;exitY=0.5;exitDx=0;exitDy=0;" parent="1" source="hsBlT8sPt4qA28vCXqKn-9" edge="1">
                    <mxGeometry width="50" height="50" relative="1" as="geometry">
                        <mxPoint x="260" y="400" as="sourcePoint"/>
                        <mxPoint x="280" y="420" as="targetPoint"/>
                    </mxGeometry>
                </mxCell>
                <mxCell id="hsBlT8sPt4qA28vCXqKn-36" value="" style="endArrow=classic;html=1;rounded=0;exitX=0;exitY=0.5;exitDx=0;exitDy=0;" parent="1" source="hsBlT8sPt4qA28vCXqKn-10" edge="1">
                    <mxGeometry width="50" height="50" relative="1" as="geometry">
                        <mxPoint x="260" y="400" as="sourcePoint"/>
                        <mxPoint x="280" y="420" as="targetPoint"/>
                    </mxGeometry>
                </mxCell>
                <mxCell id="hsBlT8sPt4qA28vCXqKn-37" value="" style="endArrow=classic;html=1;rounded=0;entryX=0.486;entryY=0.04;entryDx=0;entryDy=0;entryPerimeter=0;" parent="1" target="hsBlT8sPt4qA28vCXqKn-11" edge="1">
                    <mxGeometry width="50" height="50" relative="1" as="geometry">
                        <mxPoint x="280" y="420" as="sourcePoint"/>
                        <mxPoint x="310" y="350" as="targetPoint"/>
                    </mxGeometry>
                </mxCell>
                <mxCell id="hsBlT8sPt4qA28vCXqKn-38" value="" style="endArrow=classic;html=1;rounded=0;exitX=0.5;exitY=1;exitDx=0;exitDy=0;" parent="1" source="hsBlT8sPt4qA28vCXqKn-11" edge="1">
                    <mxGeometry width="50" height="50" relative="1" as="geometry">
                        <mxPoint x="260" y="400" as="sourcePoint"/>
                        <mxPoint x="285" y="550" as="targetPoint"/>
                    </mxGeometry>
                </mxCell>
                <mxCell id="hsBlT8sPt4qA28vCXqKn-39" value="нет" style="text;html=1;strokeColor=none;fillColor=none;align=center;verticalAlign=middle;whiteSpace=wrap;rounded=0;" parent="1" vertex="1">
                    <mxGeometry x="345" y="200" width="60" height="30" as="geometry"/>
                </mxCell>
                <mxCell id="hsBlT8sPt4qA28vCXqKn-40" value="да" style="text;html=1;strokeColor=none;fillColor=none;align=center;verticalAlign=middle;whiteSpace=wrap;rounded=0;" parent="1" vertex="1">
                    <mxGeometry x="320" y="310" width="60" height="30" as="geometry"/>
                </mxCell>
                <mxCell id="hsBlT8sPt4qA28vCXqKn-41" value="нет" style="text;html=1;strokeColor=none;fillColor=none;align=center;verticalAlign=middle;whiteSpace=wrap;rounded=0;" parent="1" vertex="1">
                    <mxGeometry x="192.5" y="310" width="60" height="30" as="geometry"/>
                </mxCell>
                <mxCell id="hsBlT8sPt4qA28vCXqKn-44" value="" style="endArrow=classic;html=1;rounded=0;exitX=0;exitY=0.5;exitDx=0;exitDy=0;entryX=0;entryY=0.5;entryDx=0;entryDy=0;" parent="1" source="hsBlT8sPt4qA28vCXqKn-13" target="hsBlT8sPt4qA28vCXqKn-4" edge="1">
                    <mxGeometry width="50" height="50" relative="1" as="geometry">
                        <mxPoint x="260" y="350" as="sourcePoint"/>
                        <mxPoint x="-120" y="570" as="targetPoint"/>
                        <Array as="points">
                            <mxPoint x="-120" y="570"/>
                            <mxPoint x="-120" y="235"/>
                        </Array>
                    </mxGeometry>
                </mxCell>
                <mxCell id="hsBlT8sPt4qA28vCXqKn-45" value="&lt;span style=&quot;&quot;&gt;distanse - расстояние&lt;/span&gt;" style="text;html=1;align=center;verticalAlign=middle;resizable=0;points=[];autosize=1;strokeColor=none;fillColor=none;" parent="1" vertex="1">
                    <mxGeometry x="400" y="160" width="140" height="30" as="geometry"/>
                </mxCell>
                <mxCell id="hsBlT8sPt4qA28vCXqKn-46" value="&lt;span style=&quot;&quot;&gt;count - сколько раз собака пробежит от одного друга к другому&lt;/span&gt;" style="text;html=1;align=center;verticalAlign=middle;resizable=0;points=[];autosize=1;strokeColor=none;fillColor=none;" parent="1" vertex="1">
                    <mxGeometry x="400" y="185" width="370" height="30" as="geometry"/>
                </mxCell>
                <mxCell id="hsBlT8sPt4qA28vCXqKn-47" value="&lt;span style=&quot;&quot;&gt;firrstFriendSpeed - скорость первого друга&lt;/span&gt;" style="text;html=1;align=center;verticalAlign=middle;resizable=0;points=[];autosize=1;strokeColor=none;fillColor=none;" parent="1" vertex="1">
                    <mxGeometry x="-120" y="160" width="260" height="30" as="geometry"/>
                </mxCell>
                <mxCell id="hsBlT8sPt4qA28vCXqKn-48" value="&lt;span style=&quot;&quot;&gt;secondFriendSpeed - скорость первого друга&lt;/span&gt;" style="text;html=1;align=center;verticalAlign=middle;resizable=0;points=[];autosize=1;strokeColor=none;fillColor=none;" parent="1" vertex="1">
                    <mxGeometry x="-120" y="175" width="270" height="30" as="geometry"/>
                </mxCell>
                <mxCell id="hsBlT8sPt4qA28vCXqKn-49" value="&lt;span style=&quot;&quot;&gt;friend = 1 - первый друг&lt;/span&gt;" style="text;html=1;align=center;verticalAlign=middle;resizable=0;points=[];autosize=1;strokeColor=none;fillColor=none;" parent="1" vertex="1">
                    <mxGeometry x="-100" y="370" width="150" height="30" as="geometry"/>
                </mxCell>
                <mxCell id="hsBlT8sPt4qA28vCXqKn-50" value="friend = 2 - второй друг" style="text;html=1;align=center;verticalAlign=middle;resizable=0;points=[];autosize=1;strokeColor=none;fillColor=none;" parent="1" vertex="1">
                    <mxGeometry x="445" y="370" width="150" height="30" as="geometry"/>
                </mxCell>
                <mxCell id="hsBlT8sPt4qA28vCXqKn-51" value="&lt;span style=&quot;&quot;&gt;dogSpeed - скорость собаки&lt;/span&gt;" style="text;html=1;align=center;verticalAlign=middle;resizable=0;points=[];autosize=1;strokeColor=none;fillColor=none;" parent="1" vertex="1">
                    <mxGeometry x="-115" y="140" width="180" height="30" as="geometry"/>
                </mxCell>
            </root>
        </mxGraphModel>
    </diagram>
</mxfile>